<?xml version="1.0" standalone="no"?>
<!DOCTYPE svg PUBLIC "-//W3C//DTD SVG 20010904//EN"
 "http://www.w3.org/TR/2001/REC-SVG-20010904/DTD/svg10.dtd">
<svg version="1.0" xmlns="http://www.w3.org/2000/svg"
 width="512.000000pt" height="512.000000pt" viewBox="0 0 512.000000 512.000000"
 preserveAspectRatio="xMidYMid meet">

<g transform="translate(0.000000,512.000000) scale(0.100000,-0.100000)"
fill="#000000" stroke="none">
<path d="M223 4210 c-84 -17 -150 -67 -191 -144 l-27 -51 0 -1455 0 -1455 27
-51 c31 -59 73 -98 138 -128 l45 -21 2345 0 2345 0 57 28 c61 30 95 64 131
131 l22 41 0 1455 0 1455 -22 41 c-36 67 -70 101 -131 131 l-57 28 -2320 1
c-1276 1 -2339 -2 -2362 -6z m4686 -81 c18 -6 30 -16 28 -23 -2 -6 -226 -183
-498 -394 -272 -211 -779 -605 -1128 -875 -349 -271 -650 -502 -670 -514 -24
-15 -52 -23 -82 -23 -55 0 -64 6 -273 169 -81 64 -160 125 -175 136 -28 21
-1933 1495 -1940 1501 -2 2 11 10 30 18 30 13 331 15 2355 16 1680 0 2330 -3
2353 -11z m-3829 -810 c680 -527 955 -745 955 -759 0 -14 -254 -216 -880 -701
-1026 -795 -1021 -791 -1042 -787 -44 8 -43 3 -41 1507 3 1204 5 1430 17 1454
8 15 19 27 25 27 6 0 441 -334 966 -741z m3957 681 c16 -65 16 -2816 0 -2880
-8 -29 -18 -46 -30 -48 -21 -4 -17 -7 -1092 826 -586 454 -830 649 -830 662 0
14 257 218 875 697 482 373 910 704 950 736 91 69 110 70 127 7z m-2757 -1620
c192 -151 235 -171 327 -150 56 12 59 14 275 182 105 82 130 97 145 89 39 -22
1907 -1477 1910 -1487 2 -7 -10 -17 -28 -23 -46 -16 -4652 -16 -4698 0 -18 6
-30 16 -28 23 3 12 1914 1496 1925 1496 4 -1 81 -59 172 -130z"/>
</g>
</svg>
